<?xml version="1.0" encoding="utf-8" standalone="no"?>
<!DOCTYPE svg PUBLIC "-//W3C//DTD SVG 1.1//EN"
  "http://www.w3.org/Graphics/SVG/1.1/DTD/svg11.dtd">
<!-- Created with matplotlib (https://matplotlib.org/) -->
<svg height="432pt" version="1.1" viewBox="0 0 648 432" width="648pt" xmlns="http://www.w3.org/2000/svg" xmlns:xlink="http://www.w3.org/1999/xlink">
 <defs>
  <style type="text/css">
*{stroke-linecap:butt;stroke-linejoin:round;}
  </style>
 </defs>
 <g id="figure_1">
  <g id="patch_1">
   <path d="M 0 432 
L 648 432 
L 648 0 
L 0 0 
z
" style="fill:#ffffff;"/>
  </g>
  <g id="axes_1">
   <g id="patch_2">
    <path d="M 81 384.48 
L 583.2 384.48 
L 583.2 51.84 
L 81 51.84 
z
" style="fill:#ffffff;"/>
   </g>
   <g id="matplotlib.axis_1">
    <g id="xtick_1">
     <g id="line2d_1">
      <defs>
       <path d="M 0 0 
L 0 3.5 
" id="me11826802c" style="stroke:#000000;stroke-width:0.8;"/>
      </defs>
      <g>
       <use style="stroke:#000000;stroke-width:0.8;" x="103.827273" xlink:href="#me11826802c" y="384.48"/>
      </g>
     </g>
     <g id="text_1">
      <!-- 0 -->
      <defs>
       <path d="M 3.125 29.296875 
Q 3.90625 50 6.4375 56.046875 
Q 8.984375 62.109375 13.671875 66.015625 
Q 18.359375 69.921875 25.1875 69.921875 
Q 32.03125 69.921875 37.109375 64.25 
Q 42.1875 58.59375 43.75 50 
Q 45.3125 41.40625 44.71875 30.265625 
Q 44.140625 19.140625 40.8125 12.109375 
Q 37.5 5.078125 30.859375 2.34375 
Q 24.21875 -0.390625 17.578125 2.921875 
Q 10.9375 6.25 8.203125 11.71875 
Q 5.46875 17.1875 4.296875 23.234375 
Q 3.125 29.296875 3.90625 50 
z
M 12.890625 52.734375 
Q 10.546875 31.25 12.5 22.84375 
Q 14.453125 14.453125 18.9375 10.9375 
Q 23.4375 7.421875 28.125 9.5625 
Q 32.8125 11.71875 34.953125 18.15625 
Q 37.109375 24.609375 37.109375 32.21875 
Q 37.109375 39.84375 36.515625 46.09375 
Q 35.9375 52.34375 33 57.421875 
Q 30.078125 62.5 25.1875 62.6875 
Q 20.3125 62.890625 16.59375 57.8125 
Q 12.890625 52.734375 10.546875 31.25 
z
" id="SimHei-48"/>
      </defs>
      <g transform="translate(98.827273 405.23)scale(0.2 -0.2)">
       <use xlink:href="#SimHei-48"/>
      </g>
     </g>
    </g>
    <g id="xtick_2">
     <g id="line2d_2">
      <g>
       <use style="stroke:#000000;stroke-width:0.8;" x="170.96631" xlink:href="#me11826802c" y="384.48"/>
      </g>
     </g>
     <g id="text_2">
      <!-- 25 -->
      <defs>
       <path d="M 4.6875 3.90625 
Q 5.078125 9.765625 10.15625 14.453125 
Q 15.234375 19.140625 23.046875 29.09375 
Q 30.859375 39.0625 33.203125 44.53125 
Q 35.546875 50 34.953125 53.90625 
Q 34.375 57.8125 31.25 60.34375 
Q 28.125 62.890625 24.015625 62.5 
Q 19.921875 62.109375 16.203125 59.375 
Q 12.5 56.640625 10.546875 51.171875 
L 3.125 52.34375 
Q 6.25 61.328125 11.125 65.421875 
Q 16.015625 69.53125 22.65625 69.921875 
Q 26.5625 70.3125 29.6875 69.71875 
Q 32.8125 69.140625 36.125 66.984375 
Q 39.453125 64.84375 41.59375 60.546875 
Q 43.75 56.25 43.15625 50.1875 
Q 42.578125 44.140625 37.109375 35.734375 
Q 31.640625 27.34375 16.015625 9.375 
L 44.140625 9.375 
L 44.140625 2.34375 
L 4.6875 2.34375 
z
" id="SimHei-50"/>
       <path d="M 8.59375 20.703125 
Q 11.328125 10.15625 17.96875 8.984375 
Q 24.609375 7.8125 28.703125 10.34375 
Q 32.8125 12.890625 34.5625 16.984375 
Q 36.328125 21.09375 36.125 26.171875 
Q 35.9375 31.25 33.390625 34.765625 
Q 30.859375 38.28125 26.953125 39.453125 
Q 23.046875 40.625 18.15625 39.453125 
Q 13.28125 38.28125 10.15625 33.984375 
L 3.515625 34.765625 
Q 4.296875 37.109375 10.9375 68.359375 
L 41.796875 68.359375 
L 41.796875 61.328125 
L 16.796875 61.328125 
Q 14.84375 50.78125 12.890625 44.53125 
Q 18.75 47.265625 23.828125 47.0625 
Q 28.90625 46.875 33.59375 44.71875 
Q 38.28125 42.578125 40.421875 38.859375 
Q 42.578125 35.15625 43.546875 31.4375 
Q 44.53125 27.734375 44.328125 23.4375 
Q 44.140625 19.140625 42.578125 14.640625 
Q 41.015625 10.15625 37.890625 7.21875 
Q 34.765625 4.296875 30.265625 2.53125 
Q 25.78125 0.78125 19.921875 1.171875 
Q 14.0625 1.5625 8.78125 5.46875 
Q 3.515625 9.375 1.5625 18.75 
z
" id="SimHei-53"/>
      </defs>
      <g transform="translate(160.96631 405.23)scale(0.2 -0.2)">
       <use xlink:href="#SimHei-50"/>
       <use x="50" xlink:href="#SimHei-53"/>
      </g>
     </g>
    </g>
    <g id="xtick_3">
     <g id="line2d_3">
      <g>
       <use style="stroke:#000000;stroke-width:0.8;" x="238.105348" xlink:href="#me11826802c" y="384.48"/>
      </g>
     </g>
     <g id="text_3">
      <!-- 50 -->
      <g transform="translate(228.105348 405.23)scale(0.2 -0.2)">
       <use xlink:href="#SimHei-53"/>
       <use x="50" xlink:href="#SimHei-48"/>
      </g>
     </g>
    </g>
    <g id="xtick_4">
     <g id="line2d_4">
      <g>
       <use style="stroke:#000000;stroke-width:0.8;" x="305.244385" xlink:href="#me11826802c" y="384.48"/>
      </g>
     </g>
     <g id="text_4">
      <!-- 75 -->
      <defs>
       <path d="M 13.28125 2.34375 
Q 20.3125 32.03125 37.890625 61.328125 
L 4.296875 61.328125 
L 4.296875 68.359375 
L 46.09375 68.359375 
L 46.09375 61.71875 
Q 27.734375 32.03125 21.875 2.34375 
L 13.28125 2.34375 
z
" id="SimHei-55"/>
      </defs>
      <g transform="translate(295.244385 405.23)scale(0.2 -0.2)">
       <use xlink:href="#SimHei-55"/>
       <use x="50" xlink:href="#SimHei-53"/>
      </g>
     </g>
    </g>
    <g id="xtick_5">
     <g id="line2d_5">
      <g>
       <use style="stroke:#000000;stroke-width:0.8;" x="372.383422" xlink:href="#me11826802c" y="384.48"/>
      </g>
     </g>
     <g id="text_5">
      <!-- 100 -->
      <defs>
       <path d="M 21.875 56.25 
Q 16.796875 51.171875 8.984375 46.484375 
L 8.984375 53.90625 
Q 18.75 60.546875 25 69.53125 
L 29.6875 69.53125 
L 29.6875 2.34375 
L 21.875 2.34375 
z
" id="SimHei-49"/>
      </defs>
      <g transform="translate(357.383422 405.23)scale(0.2 -0.2)">
       <use xlink:href="#SimHei-49"/>
       <use x="50" xlink:href="#SimHei-48"/>
       <use x="100" xlink:href="#SimHei-48"/>
      </g>
     </g>
    </g>
    <g id="xtick_6">
     <g id="line2d_6">
      <g>
       <use style="stroke:#000000;stroke-width:0.8;" x="439.52246" xlink:href="#me11826802c" y="384.48"/>
      </g>
     </g>
     <g id="text_6">
      <!-- 125 -->
      <g transform="translate(424.52246 405.23)scale(0.2 -0.2)">
       <use xlink:href="#SimHei-49"/>
       <use x="50" xlink:href="#SimHei-50"/>
       <use x="100" xlink:href="#SimHei-53"/>
      </g>
     </g>
    </g>
    <g id="xtick_7">
     <g id="line2d_7">
      <g>
       <use style="stroke:#000000;stroke-width:0.8;" x="506.661497" xlink:href="#me11826802c" y="384.48"/>
      </g>
     </g>
     <g id="text_7">
      <!-- 150 -->
      <g transform="translate(491.661497 405.23)scale(0.2 -0.2)">
       <use xlink:href="#SimHei-49"/>
       <use x="50" xlink:href="#SimHei-53"/>
       <use x="100" xlink:href="#SimHei-48"/>
      </g>
     </g>
    </g>
    <g id="xtick_8">
     <g id="line2d_8">
      <g>
       <use style="stroke:#000000;stroke-width:0.8;" x="573.800535" xlink:href="#me11826802c" y="384.48"/>
      </g>
     </g>
     <g id="text_8">
      <!-- 175 -->
      <g transform="translate(558.800535 405.23)scale(0.2 -0.2)">
       <use xlink:href="#SimHei-49"/>
       <use x="50" xlink:href="#SimHei-55"/>
       <use x="100" xlink:href="#SimHei-53"/>
      </g>
     </g>
    </g>
    <g id="text_9">
     <!-- 工件坐标系Px /mm -->
     <defs>
      <path d="M 69.921875 73.046875 
Q 79.296875 73.046875 87.109375 73.4375 
L 87.109375 65.625 
Q 79.296875 66.015625 69.921875 66.015625 
L 53.90625 66.015625 
L 53.90625 4.296875 
L 79.296875 4.296875 
Q 88.28125 4.296875 95.703125 4.6875 
L 95.703125 -3.125 
Q 88.28125 -2.734375 79.6875 -2.734375 
L 19.140625 -2.734375 
Q 10.546875 -2.734375 4.296875 -3.125 
L 4.296875 4.6875 
Q 10.9375 4.296875 19.53125 4.296875 
L 45.3125 4.296875 
L 45.3125 66.015625 
L 29.6875 66.015625 
Q 19.53125 66.015625 12.109375 65.625 
L 12.109375 73.4375 
Q 19.53125 73.046875 29.6875 73.046875 
z
" id="SimHei-24037"/>
      <path d="M 51.171875 69.921875 
Q 49.21875 68.359375 45.703125 58.984375 
L 60.9375 58.984375 
L 60.9375 66.796875 
Q 60.9375 76.5625 60.546875 80.078125 
L 68.75 80.078125 
Q 68.359375 76.953125 68.359375 67.1875 
L 68.359375 58.984375 
L 80.078125 58.984375 
Q 85.15625 58.984375 89.453125 59.375 
L 89.453125 51.953125 
Q 85.15625 52.34375 80.078125 52.34375 
L 68.359375 52.34375 
L 68.359375 31.25 
L 81.25 31.25 
Q 87.109375 31.25 95.3125 31.640625 
L 95.3125 24.21875 
Q 88.671875 24.609375 80.859375 24.609375 
L 68.359375 24.609375 
L 68.359375 4.296875 
Q 68.359375 -1.5625 68.75 -8.59375 
L 60.546875 -8.59375 
Q 60.9375 -1.5625 60.9375 4.296875 
L 60.9375 24.609375 
L 45.703125 24.609375 
Q 39.0625 24.609375 30.078125 24.21875 
L 30.078125 31.640625 
Q 38.671875 31.25 44.140625 31.25 
L 60.9375 31.25 
L 60.9375 52.34375 
L 43.359375 52.34375 
Q 42.1875 49.21875 36.71875 37.890625 
Q 35.546875 39.0625 29.6875 41.40625 
Q 33.59375 47.265625 36.71875 54.6875 
Q 39.84375 62.109375 42.1875 73.4375 
Q 45.3125 71.484375 51.171875 69.921875 
z
M 17.96875 50 
Q 14.0625 44.140625 8.59375 37.109375 
Q 6.640625 41.015625 3.125 42.96875 
Q 10.15625 50 16.015625 60.15625 
Q 21.875 70.3125 25.78125 82.03125 
Q 30.46875 78.90625 33.984375 77.734375 
Q 31.25 75.390625 25.390625 62.890625 
L 25.390625 9.765625 
Q 25.390625 -2.734375 25.78125 -8.984375 
L 17.578125 -8.984375 
Q 17.96875 -3.515625 17.96875 9.375 
z
" id="SimHei-20214"/>
      <path d="M 53.90625 79.6875 
Q 53.515625 73.046875 53.515625 64.84375 
L 53.515625 23.4375 
L 71.09375 23.4375 
Q 77.734375 23.4375 85.15625 23.828125 
L 85.15625 16.796875 
Q 78.125 17.1875 70.3125 17.1875 
L 53.515625 17.1875 
L 53.515625 0.78125 
L 79.296875 0.78125 
Q 85.9375 0.78125 93.359375 1.171875 
L 93.359375 -5.859375 
Q 86.328125 -5.46875 79.296875 -5.46875 
L 23.046875 -5.46875 
Q 14.453125 -5.46875 6.25 -5.859375 
L 6.25 1.171875 
Q 14.453125 0.78125 23.046875 0.78125 
L 45.703125 0.78125 
L 45.703125 17.1875 
L 32.03125 17.1875 
Q 22.65625 17.1875 14.84375 16.796875 
L 14.84375 23.828125 
Q 22.65625 23.4375 32.03125 23.4375 
L 45.703125 23.4375 
L 45.703125 64.84375 
Q 45.703125 73.046875 45.3125 79.6875 
L 53.90625 79.6875 
z
M 81.25 69.53125 
Q 78.90625 66.40625 75.390625 56.25 
Q 81.25 51.5625 93.359375 39.0625 
Q 90.234375 37.5 87.109375 33.59375 
Q 79.296875 43.75 72.65625 49.21875 
Q 68.359375 39.0625 62.109375 30.078125 
Q 58.203125 33.203125 55.078125 34.375 
Q 60.546875 40.234375 65.8125 52.53125 
Q 71.09375 64.84375 71.875 72.65625 
Q 76.5625 70.703125 81.25 69.53125 
z
M 5.46875 33.59375 
Q 9.375 37.109375 14.84375 48.234375 
Q 20.3125 59.375 22.65625 71.484375 
Q 25.390625 69.921875 32.03125 68.75 
Q 30.46875 66.796875 29.09375 63.28125 
Q 27.734375 59.765625 26.5625 55.859375 
Q 37.5 46.09375 42.1875 38.671875 
Q 37.890625 36.328125 35.15625 33.59375 
Q 31.640625 39.84375 29.484375 42.578125 
Q 27.34375 45.3125 23.4375 48.828125 
Q 19.53125 39.453125 12.5 29.296875 
Q 8.984375 32.03125 5.46875 33.59375 
z
" id="SimHei-22352"/>
      <path d="M 19.921875 68.75 
Q 19.921875 75 19.53125 80.859375 
L 27.34375 80.859375 
Q 26.953125 75.390625 26.953125 68.75 
L 26.953125 59.375 
Q 33.203125 59.375 40.234375 59.765625 
L 40.234375 52.34375 
Q 33.203125 52.734375 26.953125 52.734375 
L 26.953125 39.453125 
Q 29.6875 41.40625 32.421875 43.75 
Q 37.5 35.546875 41.40625 27.734375 
Q 37.109375 25.78125 33.984375 23.4375 
Q 31.640625 31.25 26.953125 37.890625 
L 26.953125 7.421875 
Q 26.953125 -0.78125 27.34375 -8.984375 
L 19.53125 -8.984375 
Q 19.921875 -0.390625 19.921875 7.421875 
L 19.921875 32.8125 
Q 16.015625 21.875 7.8125 11.71875 
Q 5.46875 14.84375 1.953125 17.578125 
Q 8.59375 24.21875 12.6875 34.171875 
Q 16.796875 44.140625 17.96875 52.734375 
Q 10.546875 52.734375 5.078125 51.953125 
L 5.078125 59.765625 
Q 12.5 59.375 19.921875 59.375 
z
M 80.859375 48.828125 
Q 88.671875 48.828125 94.53125 49.21875 
L 94.53125 41.796875 
Q 88.671875 42.1875 82.421875 42.1875 
L 70.3125 42.1875 
L 70.3125 2.734375 
Q 70.3125 -3.515625 66.796875 -5.46875 
Q 63.28125 -7.421875 54.296875 -8.59375 
Q 53.515625 -3.90625 51.171875 0.390625 
Q 58.984375 0.390625 60.9375 0.96875 
Q 62.890625 1.5625 62.890625 5.46875 
L 62.890625 42.1875 
L 53.125 42.1875 
Q 43.359375 42.1875 39.0625 41.40625 
L 39.0625 49.21875 
Q 44.140625 48.828125 53.125 48.828125 
z
M 76.5625 74.609375 
Q 84.765625 74.609375 89.84375 75 
L 89.84375 67.1875 
Q 82.421875 67.96875 74.21875 67.96875 
L 55.078125 67.96875 
Q 48.828125 67.96875 42.96875 67.1875 
L 42.96875 75 
Q 48.4375 74.609375 55.078125 74.609375 
z
M 82.421875 31.640625 
Q 91.015625 18.359375 96.875 7.8125 
Q 92.578125 5.859375 88.28125 3.125 
Q 83.984375 14.453125 75.390625 26.953125 
Q 79.296875 28.90625 82.421875 31.640625 
z
M 56.25 27.734375 
Q 54.6875 25.390625 50.390625 15.234375 
Q 46.09375 5.078125 43.75 0.78125 
Q 40.234375 2.734375 35.9375 4.296875 
Q 41.015625 12.109375 43.546875 18.546875 
Q 46.09375 25 47.65625 31.25 
Q 51.953125 29.296875 56.25 27.734375 
z
" id="SimHei-26631"/>
      <path d="M 82.8125 81.25 
Q 85.15625 77.34375 89.453125 73.046875 
Q 77.734375 72.65625 69.328125 71.671875 
Q 60.9375 70.703125 48.828125 69.53125 
Q 50.78125 67.578125 54.296875 66.015625 
Q 49.21875 62.890625 44.328125 58.78125 
Q 39.453125 54.6875 34.765625 51.171875 
L 54.296875 51.171875 
Q 64.0625 57.8125 70.703125 63.28125 
Q 74.609375 60.15625 80.078125 57.8125 
Q 74.609375 55.46875 69.53125 52.734375 
Q 64.453125 50 52.921875 42.765625 
Q 41.40625 35.546875 33.203125 30.859375 
Q 56.25 32.03125 76.171875 32.8125 
Q 74.21875 34.765625 66.015625 41.015625 
Q 69.921875 42.578125 72.65625 44.921875 
Q 77.34375 41.40625 83.390625 36.125 
Q 89.453125 30.859375 94.921875 25.78125 
Q 90.234375 23.046875 87.5 20.703125 
Q 84.375 24.609375 81.640625 26.953125 
Q 71.09375 26.5625 56.640625 25.78125 
L 56.640625 2.34375 
Q 56.640625 -5.078125 52.921875 -6.4375 
Q 49.21875 -7.8125 39.453125 -9.375 
Q 38.671875 -4.6875 35.9375 -0.390625 
Q 44.921875 -0.390625 47.0625 0.1875 
Q 49.21875 0.78125 49.21875 4.6875 
L 49.21875 25.78125 
Q 25.390625 25.390625 16.796875 23.828125 
Q 15.625 27.734375 14.0625 32.03125 
Q 22.65625 32.8125 29.296875 35.9375 
Q 35.9375 39.0625 45.3125 45.3125 
Q 36.328125 45.3125 31.828125 44.921875 
Q 27.34375 44.53125 21.875 43.75 
Q 20.703125 48.046875 19.53125 51.953125 
Q 26.171875 51.953125 32.8125 57.21875 
Q 39.453125 62.5 42.96875 68.75 
Q 21.09375 67.96875 14.453125 67.1875 
Q 13.28125 71.09375 11.71875 74.21875 
Q 33.59375 74.21875 50.78125 75.78125 
Q 67.96875 77.34375 82.8125 81.25 
z
M 72.265625 19.53125 
Q 76.953125 16.015625 83.203125 11.515625 
Q 89.453125 7.03125 93.75 2.734375 
Q 90.625 0 87.5 -3.515625 
Q 82.421875 1.953125 76.953125 6.25 
Q 71.484375 10.546875 66.796875 13.671875 
Q 70.3125 16.40625 72.265625 19.53125 
z
M 34.375 13.671875 
Q 29.6875 11.328125 24.015625 5.859375 
Q 18.359375 0.390625 12.5 -4.6875 
Q 8.984375 -1.171875 5.859375 0.390625 
Q 16.796875 7.03125 26.171875 19.140625 
Q 29.6875 16.40625 34.375 13.671875 
z
" id="SimHei-31995"/>
      <path d="M 46.09375 48.4375 
Q 46.09375 39.0625 40.625 33.59375 
Q 35.15625 28.125 25.390625 28.125 
L 14.0625 28.125 
L 14.0625 1.953125 
L 5.078125 1.953125 
L 5.078125 68.75 
L 25.390625 68.75 
Q 35.15625 68.75 40.625 63.28125 
Q 46.09375 57.8125 46.09375 48.4375 
z
M 37.109375 48.4375 
Q 37.109375 55.859375 33.59375 58.59375 
Q 30.078125 61.328125 23.046875 61.328125 
L 14.0625 61.328125 
L 14.0625 35.546875 
L 23.046875 35.546875 
Q 30.078125 35.546875 33.59375 38.28125 
Q 37.109375 41.015625 37.109375 48.4375 
z
" id="SimHei-80"/>
      <path d="M 44.921875 1.953125 
L 35.546875 1.953125 
L 24.21875 18.75 
L 12.890625 1.953125 
L 3.515625 1.953125 
L 19.53125 24.21875 
L 4.6875 45.703125 
L 14.0625 45.703125 
L 24.21875 29.296875 
L 34.375 45.703125 
L 43.75 45.703125 
L 28.90625 24.21875 
z
" id="SimHei-120"/>
      <path id="SimHei-32"/>
      <path d="M 46.875 71.09375 
L 5.46875 -2.734375 
L 1.5625 -0.390625 
L 42.96875 73.4375 
z
" id="SimHei-47"/>
      <path d="M 47.65625 1.953125 
L 39.84375 1.953125 
L 39.84375 33.59375 
Q 39.84375 35.9375 39.0625 37.5 
Q 38.28125 39.0625 35.9375 39.0625 
Q 33.203125 39.0625 30.859375 36.125 
Q 28.515625 33.203125 28.515625 28.515625 
L 28.515625 1.953125 
L 20.703125 1.953125 
L 20.703125 33.59375 
Q 20.703125 35.9375 19.921875 37.5 
Q 19.140625 39.0625 16.796875 39.0625 
Q 14.0625 39.0625 11.71875 36.125 
Q 9.375 33.203125 9.375 28.515625 
L 9.375 1.953125 
L 1.5625 1.953125 
L 1.5625 45.703125 
L 9.375 45.703125 
L 9.375 39.84375 
Q 11.328125 42.96875 14.0625 44.71875 
Q 16.796875 46.484375 19.921875 46.484375 
Q 23.046875 46.484375 25.1875 44.71875 
Q 27.34375 42.96875 28.125 39.84375 
Q 30.078125 42.96875 32.609375 44.71875 
Q 35.15625 46.484375 38.28125 46.484375 
Q 42.96875 46.484375 45.3125 43.9375 
Q 47.65625 41.40625 47.65625 36.71875 
z
" id="SimHei-109"/>
     </defs>
     <g transform="translate(252.1 427.51125)scale(0.2 -0.2)">
      <use xlink:href="#SimHei-24037"/>
      <use x="100" xlink:href="#SimHei-20214"/>
      <use x="200" xlink:href="#SimHei-22352"/>
      <use x="300" xlink:href="#SimHei-26631"/>
      <use x="400" xlink:href="#SimHei-31995"/>
      <use x="500" xlink:href="#SimHei-80"/>
      <use x="550" xlink:href="#SimHei-120"/>
      <use x="600" xlink:href="#SimHei-32"/>
      <use x="650" xlink:href="#SimHei-47"/>
      <use x="700" xlink:href="#SimHei-109"/>
      <use x="750" xlink:href="#SimHei-109"/>
     </g>
    </g>
   </g>
   <g id="matplotlib.axis_2">
    <g id="ytick_1">
     <g id="line2d_9">
      <defs>
       <path d="M 0 0 
L -3.5 0 
" id="m6581334567" style="stroke:#000000;stroke-width:0.8;"/>
      </defs>
      <g>
       <use style="stroke:#000000;stroke-width:0.8;" x="81" xlink:href="#m6581334567" y="311.931535"/>
      </g>
     </g>
     <g id="text_10">
      <!-- -0.2 -->
      <defs>
       <path d="M 46.484375 33.203125 
L 1.953125 33.203125 
L 1.953125 39.453125 
L 46.484375 39.453125 
z
" id="SimHei-45"/>
       <path d="M 16.796875 1.953125 
L 7.8125 1.953125 
L 7.8125 10.546875 
L 16.796875 10.546875 
z
" id="SimHei-46"/>
      </defs>
      <g transform="translate(34 318.806535)scale(0.2 -0.2)">
       <use xlink:href="#SimHei-45"/>
       <use x="50" xlink:href="#SimHei-48"/>
       <use x="100" xlink:href="#SimHei-46"/>
       <use x="150" xlink:href="#SimHei-50"/>
      </g>
     </g>
    </g>
    <g id="ytick_2">
     <g id="line2d_10">
      <g>
       <use style="stroke:#000000;stroke-width:0.8;" x="81" xlink:href="#m6581334567" y="234.937656"/>
      </g>
     </g>
     <g id="text_11">
      <!-- 0.0 -->
      <g transform="translate(44 241.812656)scale(0.2 -0.2)">
       <use xlink:href="#SimHei-48"/>
       <use x="50" xlink:href="#SimHei-46"/>
       <use x="100" xlink:href="#SimHei-48"/>
      </g>
     </g>
    </g>
    <g id="ytick_3">
     <g id="line2d_11">
      <g>
       <use style="stroke:#000000;stroke-width:0.8;" x="81" xlink:href="#m6581334567" y="157.943777"/>
      </g>
     </g>
     <g id="text_12">
      <!-- 0.2 -->
      <g transform="translate(44 164.818777)scale(0.2 -0.2)">
       <use xlink:href="#SimHei-48"/>
       <use x="50" xlink:href="#SimHei-46"/>
       <use x="100" xlink:href="#SimHei-50"/>
      </g>
     </g>
    </g>
    <g id="ytick_4">
     <g id="line2d_12">
      <g>
       <use style="stroke:#000000;stroke-width:0.8;" x="81" xlink:href="#m6581334567" y="80.949898"/>
      </g>
     </g>
     <g id="text_13">
      <!-- 0.4 -->
      <defs>
       <path d="M 31.25 17.1875 
L 1.171875 17.1875 
L 1.171875 23.828125 
L 32.8125 69.53125 
L 38.671875 69.53125 
L 38.671875 23.828125 
L 48.046875 23.828125 
L 48.046875 17.1875 
L 38.671875 17.1875 
L 38.671875 2.34375 
L 31.25 2.34375 
z
M 31.25 23.828125 
L 31.25 54.6875 
L 9.375 23.828125 
z
" id="SimHei-52"/>
      </defs>
      <g transform="translate(44 87.824898)scale(0.2 -0.2)">
       <use xlink:href="#SimHei-48"/>
       <use x="50" xlink:href="#SimHei-46"/>
       <use x="100" xlink:href="#SimHei-52"/>
      </g>
     </g>
    </g>
    <g id="text_14">
     <!-- 轮廓倾角 /rad -->
     <defs>
      <path d="M 34.375 52.34375 
Q 33.984375 47.65625 33.984375 42.96875 
L 33.984375 37.890625 
Q 40.234375 37.890625 44.53125 38.28125 
L 44.53125 31.640625 
Q 39.84375 32.03125 33.984375 32.03125 
L 33.984375 17.96875 
L 46.484375 19.53125 
Q 45.703125 16.796875 45.703125 13.28125 
Q 41.015625 12.890625 33.984375 11.71875 
Q 33.984375 2.34375 34.375 -10.15625 
L 26.5625 -10.15625 
Q 26.953125 1.953125 26.953125 10.9375 
Q 10.9375 8.59375 6.25 7.421875 
Q 4.6875 12.109375 3.90625 15.234375 
Q 9.375 15.625 26.953125 17.1875 
L 26.953125 32.03125 
Q 22.265625 32.03125 17.1875 31.640625 
Q 12.109375 31.25 7.421875 30.078125 
L 4.6875 37.890625 
Q 7.03125 39.84375 10.15625 45.3125 
Q 13.28125 50.78125 16.796875 60.15625 
Q 11.71875 60.15625 4.296875 59.765625 
L 4.296875 66.796875 
Q 11.71875 66.40625 18.75 66.40625 
Q 21.484375 76.171875 22.265625 81.25 
Q 26.171875 79.296875 30.46875 78.515625 
Q 28.515625 74.21875 25.78125 66.40625 
L 32.421875 66.40625 
Q 40.625 66.40625 46.484375 66.796875 
L 46.484375 59.765625 
Q 39.84375 60.15625 32.8125 60.15625 
L 24.21875 60.15625 
Q 18.359375 45.3125 14.0625 37.890625 
L 26.953125 37.890625 
Q 26.5625 47.65625 26.5625 52.34375 
z
M 58.59375 25.390625 
Q 74.21875 32.421875 81.25 39.84375 
Q 85.546875 34.765625 87.890625 33.203125 
Q 80.859375 29.296875 74.21875 25.78125 
Q 67.578125 22.265625 58.59375 18.359375 
L 58.59375 3.515625 
Q 58.59375 -1.171875 63.28125 -1.5625 
L 76.953125 -1.5625 
Q 82.03125 -1.953125 83.203125 2.140625 
Q 84.375 6.25 84.375 9.375 
Q 90.625 5.46875 93.359375 4.6875 
Q 89.84375 -3.515625 87.6875 -5.65625 
Q 85.546875 -7.8125 80.859375 -7.8125 
L 60.15625 -7.8125 
Q 51.5625 -7.8125 51.5625 0 
L 51.5625 29.6875 
Q 51.5625 38.671875 51.171875 45.3125 
L 58.984375 45.3125 
Q 58.59375 38.28125 58.59375 32.8125 
z
M 68.359375 75 
Q 76.171875 62.109375 83.390625 57.03125 
Q 90.625 51.953125 96.875 48.828125 
Q 93.359375 44.921875 91.015625 41.40625 
Q 81.25 48.046875 75.390625 54.484375 
Q 69.53125 60.9375 65.625 67.96875 
Q 60.546875 59.765625 56.046875 53.3125 
Q 51.5625 46.875 45.703125 41.015625 
Q 42.578125 43.75 38.28125 46.875 
Q 43.359375 50 47.453125 54.484375 
Q 51.5625 58.984375 54.875 64.84375 
Q 58.203125 70.703125 61.71875 82.421875 
Q 67.1875 79.6875 71.09375 78.125 
L 68.359375 75 
z
" id="SimHei-36718"/>
      <path d="M 54.296875 82.421875 
Q 55.078125 79.6875 57.8125 72.65625 
L 76.5625 72.65625 
Q 82.421875 72.65625 91.40625 73.046875 
L 91.40625 66.40625 
Q 82.8125 66.796875 76.5625 66.796875 
L 19.921875 66.796875 
Q 19.921875 33.59375 19.328125 24.015625 
Q 18.75 14.453125 16.984375 6.25 
Q 15.234375 -1.953125 12.109375 -7.8125 
Q 9.375 -4.6875 3.90625 -2.34375 
Q 7.8125 2.34375 9.375 8.203125 
Q 10.9375 14.0625 11.515625 20.890625 
Q 12.109375 27.734375 12.296875 35.734375 
Q 12.5 43.75 11.71875 72.65625 
L 49.609375 72.65625 
Q 48.828125 75 46.875 80.46875 
Q 50 81.25 54.296875 82.421875 
z
M 73.4375 53.125 
L 73.4375 5.859375 
Q 73.4375 1.171875 73.828125 -8.203125 
L 66.40625 -8.203125 
Q 66.796875 0.78125 66.796875 5.859375 
L 66.796875 46.09375 
Q 66.796875 53.125 66.40625 58.59375 
L 94.921875 58.59375 
Q 92.578125 55.078125 83.984375 33.203125 
Q 96.09375 19.921875 94.921875 13.078125 
Q 93.75 6.25 79.296875 3.125 
Q 79.6875 5.859375 76.171875 12.5 
Q 90.625 11.328125 86.71875 18.546875 
Q 82.8125 25.78125 76.953125 32.421875 
Q 79.296875 37.890625 85.15625 53.125 
z
M 21.09375 11.328125 
Q 29.296875 11.71875 40.234375 13.671875 
Q 40.234375 15.625 39.0625 17.96875 
Q 45.3125 20.703125 48.828125 23.046875 
L 37.109375 23.046875 
Q 30.46875 23.046875 25 22.65625 
L 25 28.90625 
Q 30.859375 28.125 37.5 28.125 
L 58.984375 28.125 
L 58.984375 21.875 
Q 55.078125 20.703125 47.265625 16.015625 
L 47.265625 14.0625 
Q 50.390625 14.0625 60.15625 16.015625 
L 59.765625 9.765625 
Q 53.125 8.984375 47.265625 8.203125 
L 47.265625 0.390625 
Q 47.65625 -4.6875 44.328125 -6.4375 
Q 41.015625 -8.203125 34.375 -9.375 
Q 33.59375 -5.46875 31.640625 -1.5625 
Q 38.671875 -1.5625 39.453125 -0.578125 
Q 40.234375 0.390625 40.234375 7.421875 
Q 30.078125 5.859375 23.4375 3.90625 
L 21.09375 11.328125 
z
M 59.375 47.65625 
Q 58.984375 43.75 58.984375 39.84375 
Q 58.984375 35.9375 59.375 32.8125 
L 26.5625 32.8125 
Q 26.953125 36.71875 26.953125 39.453125 
Q 26.953125 42.578125 26.5625 47.65625 
z
M 46.09375 65.625 
Q 47.265625 62.5 48.046875 58.203125 
Q 55.078125 58.203125 60.9375 58.59375 
L 60.9375 52.34375 
Q 55.078125 52.734375 50.390625 52.734375 
L 35.15625 52.734375 
Q 28.515625 52.734375 23.046875 52.34375 
L 23.046875 58.59375 
Q 28.515625 58.203125 39.84375 58.203125 
Q 39.453125 59.765625 37.890625 63.671875 
Q 41.796875 64.453125 46.09375 65.625 
z
M 52.34375 37.890625 
L 52.34375 42.1875 
L 33.59375 42.1875 
L 33.59375 37.890625 
z
" id="SimHei-24275"/>
      <path d="M 83.984375 12.5 
L 83.984375 50.78125 
L 61.328125 50.78125 
L 61.328125 10.15625 
L 53.90625 9.765625 
Q 54.296875 17.578125 54.296875 34.375 
Q 54.296875 51.171875 53.515625 57.03125 
L 65.234375 57.03125 
Q 67.1875 64.84375 67.96875 69.53125 
L 62.5 69.53125 
Q 53.90625 69.53125 49.21875 69.140625 
L 49.21875 76.171875 
Q 54.296875 75.78125 62.109375 75.78125 
L 83.984375 75.78125 
Q 90.625 75.78125 93.75 76.171875 
L 93.75 69.140625 
Q 90.625 69.53125 83.984375 69.53125 
L 75.78125 69.53125 
Q 74.21875 63.671875 72.65625 57.03125 
L 91.40625 57.03125 
Q 91.015625 50.78125 91.015625 33.59375 
Q 91.015625 16.40625 91.40625 12.5 
z
M 3.90625 44.140625 
Q 10.9375 54.296875 16.015625 65.625 
Q 21.09375 76.953125 21.875 82.03125 
Q 25.78125 79.6875 30.078125 78.515625 
Q 28.125 76.5625 23.4375 63.28125 
L 23.4375 8.984375 
Q 23.4375 -2.734375 23.828125 -10.15625 
L 16.015625 -10.15625 
Q 16.40625 -2.734375 16.40625 8.984375 
L 16.40625 51.171875 
Q 14.84375 47.65625 8.984375 38.671875 
Q 6.640625 42.1875 3.90625 44.140625 
z
M 48.4375 25 
Q 49.21875 22.265625 51.171875 17.96875 
Q 39.453125 9.765625 33.59375 4.296875 
Q 31.640625 8.203125 28.90625 11.328125 
Q 31.640625 13.671875 32.03125 17.578125 
L 32.03125 56.25 
Q 32.03125 63.671875 31.640625 68.75 
L 39.453125 68.75 
Q 39.0625 63.671875 39.0625 53.515625 
L 39.0625 49.21875 
Q 44.921875 49.21875 50 49.609375 
L 50 42.578125 
Q 45.3125 42.96875 39.0625 42.96875 
L 39.0625 17.578125 
Q 41.796875 19.53125 48.4375 25 
z
M 77.34375 43.359375 
Q 76.171875 30.859375 75.1875 21.28125 
Q 74.21875 11.71875 69.53125 3.90625 
Q 64.84375 -3.90625 52.34375 -10.9375 
Q 50 -7.8125 45.3125 -5.46875 
Q 65.625 3.125 67.375 19.140625 
Q 69.140625 35.15625 69.140625 44.921875 
Q 73.046875 43.359375 77.34375 43.359375 
z
M 96.09375 -4.296875 
Q 93.359375 -6.25 89.84375 -10.15625 
Q 84.765625 -3.125 75.78125 6.25 
Q 78.125 8.203125 80.46875 11.328125 
z
" id="SimHei-20542"/>
      <path d="M 48.828125 14.0625 
L 25.390625 14.0625 
Q 23.046875 1.953125 13.671875 -9.765625 
Q 10.15625 -6.25 6.25 -4.6875 
Q 12.109375 0.78125 15.234375 7.421875 
Q 18.359375 14.0625 19.53125 24.609375 
Q 20.703125 35.15625 20.3125 51.953125 
Q 17.1875 48.828125 12.890625 45.703125 
Q 10.9375 48.828125 6.640625 51.953125 
Q 10.15625 53.515625 16.796875 58.390625 
Q 23.4375 63.28125 28.90625 70.5 
Q 34.375 77.734375 36.71875 82.421875 
Q 39.84375 80.078125 44.140625 78.125 
Q 42.1875 76.171875 37.890625 70.703125 
L 75.390625 70.703125 
Q 73.4375 68.359375 63.28125 54.296875 
L 87.5 54.296875 
Q 87.109375 45.703125 87.109375 39.0625 
L 87.109375 0.390625 
Q 87.109375 -5.46875 83.203125 -7.03125 
Q 79.296875 -8.59375 71.484375 -9.375 
Q 70.3125 -5.078125 67.578125 -0.78125 
Q 75.390625 -0.78125 77.734375 0 
Q 80.078125 0.78125 79.6875 5.078125 
L 79.6875 14.0625 
L 56.25 14.0625 
L 56.25 6.25 
Q 56.25 0.390625 56.640625 -7.8125 
L 48.046875 -7.8125 
Q 48.828125 0 48.828125 7.8125 
z
M 55.078125 54.296875 
L 62.109375 64.453125 
L 33.59375 64.453125 
Q 28.515625 58.984375 23.046875 54.296875 
z
M 79.6875 20.3125 
L 79.6875 31.25 
L 56.25 31.25 
L 56.25 20.3125 
z
M 79.6875 37.5 
L 79.6875 47.65625 
L 56.25 47.65625 
L 56.25 37.5 
z
M 48.828125 20.3125 
L 48.828125 31.25 
L 27.34375 31.25 
Q 27.34375 25.390625 26.5625 20.3125 
z
M 48.828125 37.5 
L 48.828125 47.65625 
L 27.734375 47.65625 
L 27.734375 37.5 
z
" id="SimHei-35282"/>
      <path d="M 39.0625 37.890625 
Q 31.640625 39.0625 26.5625 35.734375 
Q 21.484375 32.421875 17.96875 24.21875 
L 17.96875 1.953125 
L 10.15625 1.953125 
L 10.15625 45.703125 
L 17.96875 45.703125 
L 17.96875 34.375 
Q 21.484375 40.625 26.75 43.546875 
Q 32.03125 46.484375 39.0625 46.484375 
z
" id="SimHei-114"/>
      <path d="M 44.921875 1.953125 
L 35.546875 1.953125 
Q 34.765625 2.734375 34.375 4.09375 
Q 33.984375 5.46875 33.984375 7.421875 
Q 31.25 4.296875 27.34375 2.734375 
Q 23.4375 1.171875 19.140625 1.171875 
Q 12.890625 1.171875 8.59375 4.296875 
Q 4.296875 7.421875 4.296875 13.28125 
Q 4.296875 19.140625 8.203125 22.65625 
Q 12.109375 26.171875 20.3125 27.34375 
Q 25.78125 28.125 29.875 29.296875 
Q 33.984375 30.46875 33.984375 32.421875 
Q 33.984375 34.765625 32.21875 37.109375 
Q 30.46875 39.453125 24.609375 39.453125 
Q 19.921875 39.453125 17.765625 37.6875 
Q 15.625 35.9375 14.84375 32.8125 
L 6.25 32.8125 
Q 7.03125 39.0625 11.90625 42.765625 
Q 16.796875 46.484375 24.609375 46.484375 
Q 33.203125 46.484375 37.5 42.578125 
Q 41.796875 38.671875 41.796875 31.640625 
L 41.796875 10.15625 
Q 41.796875 7.8125 42.578125 5.859375 
Q 43.359375 3.90625 44.921875 1.953125 
z
M 33.984375 16.40625 
L 33.984375 24.21875 
Q 31.640625 23.4375 29.484375 22.84375 
Q 27.34375 22.265625 22.265625 21.484375 
Q 16.40625 20.703125 14.640625 18.75 
Q 12.890625 16.796875 12.890625 14.0625 
Q 12.890625 11.71875 14.640625 9.953125 
Q 16.40625 8.203125 19.921875 8.203125 
Q 23.4375 8.203125 27.53125 10.15625 
Q 31.640625 12.109375 33.984375 16.40625 
z
" id="SimHei-97"/>
      <path d="M 42.96875 1.953125 
L 35.15625 1.953125 
L 35.15625 7.8125 
Q 32.8125 4.296875 29.6875 2.734375 
Q 26.5625 1.171875 22.265625 1.171875 
Q 14.453125 1.171875 8.984375 6.828125 
Q 3.515625 12.5 3.515625 23.828125 
Q 3.515625 35.15625 8.984375 41.015625 
Q 14.453125 46.875 22.265625 46.875 
Q 26.5625 46.875 29.6875 45.109375 
Q 32.8125 43.359375 35.15625 39.84375 
L 35.15625 68.75 
L 42.96875 68.75 
z
M 35.15625 23.828125 
Q 35.15625 31.25 31.828125 35.546875 
Q 28.515625 39.84375 23.828125 39.84375 
Q 17.96875 39.84375 15.03125 35.546875 
Q 12.109375 31.25 12.109375 23.828125 
Q 12.109375 16.40625 15.03125 12.296875 
Q 17.96875 8.203125 23.828125 8.203125 
Q 28.515625 8.203125 31.828125 12.296875 
Q 35.15625 16.40625 35.15625 23.828125 
z
" id="SimHei-100"/>
     </defs>
     <g transform="translate(27.5 283.16)rotate(-90)scale(0.2 -0.2)">
      <use xlink:href="#SimHei-36718"/>
      <use x="100" xlink:href="#SimHei-24275"/>
      <use x="200" xlink:href="#SimHei-20542"/>
      <use x="300" xlink:href="#SimHei-35282"/>
      <use x="400" xlink:href="#SimHei-32"/>
      <use x="450" xlink:href="#SimHei-47"/>
      <use x="500" xlink:href="#SimHei-114"/>
      <use x="550" xlink:href="#SimHei-97"/>
      <use x="600" xlink:href="#SimHei-100"/>
     </g>
    </g>
   </g>
   <g id="line2d_13">
    <path clip-path="url(#p32ccf66102)" d="M 103.827273 234.937656 
L 129.956175 234.937656 
L 132.331554 235.941998 
L 134.699145 239.919386 
L 158.373981 282.497995 
L 170.150168 303.818473 
L 188.733716 337.932641 
L 200.104921 359.188315 
L 204.586586 367.620544 
L 206.812916 369.304214 
L 209.045155 369.36 
L 213.509364 369.3191 
L 224.669752 369.3191 
L 233.59817 369.3191 
L 249.222767 369.304214 
L 260.383154 369.304214 
L 262.615393 368.484668 
L 264.844678 361.274006 
L 273.92107 327.254868 
L 283.237283 293.125266 
L 297.422419 242.014145 
L 299.788935 235.417178 
L 302.160555 234.937656 
L 356.793469 234.937656 
L 359.168849 233.102193 
L 361.53456 222.864831 
L 378.024176 143.320639 
L 387.168244 97.80589 
L 391.586799 75.192082 
L 393.74787 67.231484 
L 395.897662 66.978393 
L 410.967422 66.96 
L 458.32891 66.96 
L 460.481656 68.865368 
L 471.361134 97.046275 
L 480.333595 119.80761 
L 498.811333 165.342693 
L 512.94598 199.457094 
L 524.770776 227.755898 
L 527.131384 233.274353 
L 529.493336 234.937656 
L 560.372727 234.937656 
L 560.372727 234.937656 
" style="fill:none;stroke:#1f77b4;stroke-linecap:square;stroke-width:1.5;"/>
   </g>
   <g id="patch_3">
    <path d="M 81 384.48 
L 81 51.84 
" style="fill:none;stroke:#000000;stroke-linecap:square;stroke-linejoin:miter;stroke-width:0.8;"/>
   </g>
   <g id="patch_4">
    <path d="M 81 384.48 
L 583.2 384.48 
" style="fill:none;stroke:#000000;stroke-linecap:square;stroke-linejoin:miter;stroke-width:0.8;"/>
   </g>
   <g id="text_15">
    <!-- 工件坐标系Px方向先验轮廓倾角 -->
    <defs>
     <path d="M 6.640625 62.109375 
Q 12.890625 61.71875 20.3125 61.71875 
L 78.515625 61.71875 
Q 87.890625 61.71875 93.75 62.109375 
L 93.75 54.296875 
Q 88.671875 54.6875 79.6875 54.6875 
L 39.453125 54.6875 
Q 39.453125 50.390625 39.0625 39.0625 
L 82.8125 39.0625 
Q 82.03125 33.984375 81.25 24.21875 
L 78.90625 2.734375 
Q 78.125 -4.296875 72.265625 -6.4375 
Q 66.40625 -8.59375 55.078125 -9.765625 
Q 54.6875 -4.6875 51.953125 -0.78125 
Q 60.9375 -1.171875 65.625 0 
Q 70.3125 1.171875 71.484375 6.640625 
L 73.828125 32.03125 
L 38.671875 32.03125 
Q 37.109375 21.09375 33.78125 13.671875 
Q 30.46875 6.25 24.609375 0 
Q 18.75 -6.25 12.890625 -10.9375 
Q 11.328125 -8.59375 5.859375 -5.46875 
Q 10.9375 -2.734375 16.59375 3.125 
Q 22.265625 8.984375 25.96875 16.40625 
Q 29.6875 23.828125 30.65625 32.8125 
Q 31.640625 41.796875 31.640625 54.6875 
L 20.703125 54.6875 
Q 12.109375 54.6875 6.640625 54.296875 
z
M 48.046875 63.671875 
Q 44.53125 71.484375 40.234375 78.125 
Q 43.75 80.078125 47.265625 82.421875 
Q 51.5625 75.78125 55.859375 67.96875 
Q 51.953125 66.40625 48.046875 63.671875 
z
" id="SimHei-26041"/>
     <path d="M 31.640625 64.84375 
Q 33.203125 68.75 34.171875 72.453125 
Q 35.15625 76.171875 35.9375 80.859375 
Q 42.96875 78.515625 45.703125 78.125 
Q 41.40625 68.75 39.84375 64.84375 
L 91.40625 64.84375 
Q 91.015625 57.8125 91.015625 51.171875 
L 91.015625 3.515625 
Q 91.015625 -5.078125 85.734375 -6.4375 
Q 80.46875 -7.8125 73.4375 -8.203125 
Q 72.265625 -2.734375 69.53125 0.78125 
Q 79.296875 0.390625 81.4375 0.78125 
Q 83.59375 1.171875 83.203125 5.078125 
L 83.203125 57.8125 
L 19.53125 57.8125 
L 19.53125 -7.8125 
L 11.328125 -7.8125 
Q 11.328125 2.34375 11.71875 8.59375 
L 11.71875 50.78125 
Q 11.328125 57.8125 11.328125 64.84375 
L 31.640625 64.84375 
z
M 69.53125 44.140625 
Q 69.140625 39.0625 69.140625 33.984375 
L 69.140625 25 
Q 69.140625 19.921875 69.53125 14.0625 
L 31.640625 14.0625 
Q 32.03125 19.53125 32.03125 25 
L 32.03125 34.765625 
Q 32.03125 39.453125 31.640625 44.140625 
L 69.53125 44.140625 
z
M 60.9375 20.3125 
L 60.9375 37.890625 
L 39.84375 37.890625 
L 39.84375 20.3125 
z
" id="SimHei-21521"/>
     <path d="M 33.203125 73.828125 
Q 31.25 71.484375 30.078125 68.546875 
Q 28.90625 65.625 27.34375 62.109375 
L 46.09375 62.109375 
Q 46.09375 73.828125 45.703125 79.296875 
L 54.6875 79.296875 
Q 54.296875 74.609375 54.296875 62.109375 
L 67.578125 62.109375 
Q 75.390625 62.109375 82.8125 62.5 
L 82.8125 54.6875 
Q 75.78125 55.078125 67.96875 55.078125 
L 54.296875 55.078125 
L 54.296875 39.84375 
L 81.25 39.84375 
Q 88.671875 39.84375 94.53125 40.234375 
L 94.53125 32.421875 
Q 88.671875 32.8125 81.25 32.8125 
L 65.234375 32.8125 
L 65.234375 4.6875 
Q 64.84375 -1.171875 70.3125 -1.171875 
L 78.125 -1.171875 
Q 81.640625 -1.171875 83 1.953125 
Q 84.375 5.078125 84.765625 11.328125 
Q 89.453125 7.8125 94.53125 7.421875 
Q 91.015625 -3.90625 88.46875 -5.859375 
Q 85.9375 -7.8125 82.03125 -8.203125 
L 67.1875 -8.203125 
Q 58.203125 -8.203125 57.421875 0.390625 
L 57.421875 32.8125 
L 41.796875 32.8125 
Q 40.234375 3.515625 13.28125 -10.15625 
Q 10.9375 -7.03125 5.46875 -3.515625 
Q 30.859375 3.515625 33.59375 32.8125 
L 19.140625 32.8125 
Q 10.9375 32.8125 5.46875 32.421875 
L 5.46875 40.234375 
Q 11.328125 39.84375 19.140625 39.84375 
L 46.09375 39.84375 
L 46.09375 55.078125 
L 24.609375 55.078125 
Q 23.046875 51.5625 18.359375 42.96875 
Q 15.234375 45.703125 10.546875 46.484375 
Q 19.921875 60.15625 23.828125 76.953125 
Q 28.515625 75 33.203125 73.828125 
z
" id="SimHei-20808"/>
     <path d="M 35.9375 73.828125 
Q 35.15625 70.3125 34.765625 63.671875 
L 32.03125 33.203125 
L 39.453125 33.203125 
Q 39.0625 30.078125 38.671875 22.65625 
L 37.109375 1.171875 
Q 37.109375 -7.03125 32.421875 -8.203125 
Q 27.734375 -9.375 19.53125 -10.546875 
Q 18.359375 -5.078125 16.40625 -1.5625 
Q 24.609375 -1.5625 27.140625 -1.359375 
Q 29.6875 -1.171875 30.46875 2.34375 
L 31.640625 26.5625 
L 8.59375 26.5625 
Q 8.984375 33.984375 9.171875 42.765625 
Q 9.375 51.5625 9.375 59.375 
L 17.1875 59.375 
Q 16.40625 55.078125 16.015625 48.234375 
Q 15.625 41.40625 15.625 33.203125 
L 25.390625 33.203125 
L 28.125 67.578125 
L 17.578125 67.578125 
Q 11.328125 67.578125 5.46875 67.1875 
L 5.46875 74.21875 
Q 11.328125 73.828125 17.578125 73.828125 
z
M 67.578125 76.171875 
Q 73.828125 64.453125 80.46875 58.984375 
Q 87.109375 53.515625 96.09375 50.390625 
Q 92.578125 47.265625 90.625 42.578125 
Q 85.15625 45.703125 80.078125 50 
L 80.078125 43.359375 
Q 75 43.75 65.625 43.75 
Q 56.25 43.75 50.390625 43.359375 
L 50.390625 49.609375 
Q 48.046875 46.484375 43.75 41.40625 
Q 40.234375 44.921875 36.328125 46.875 
Q 42.578125 51.171875 45.890625 55.46875 
Q 49.21875 59.765625 51.75 64.453125 
Q 54.296875 69.140625 56.046875 73.046875 
Q 57.8125 76.953125 58.984375 81.640625 
Q 64.0625 80.46875 69.53125 79.296875 
z
M 87.5 33.59375 
Q 85.546875 31.25 84.375 27.140625 
Q 83.203125 23.046875 80.65625 14.25 
Q 78.125 5.46875 76.5625 0.390625 
L 82.03125 0.390625 
Q 84.765625 0.390625 90.625 0.78125 
L 90.625 -6.25 
Q 85.546875 -5.859375 82.03125 -5.859375 
L 51.953125 -5.859375 
Q 44.921875 -5.859375 41.796875 -6.25 
L 41.796875 0.78125 
Q 46.484375 0.390625 52.34375 0.390625 
L 69.921875 0.390625 
Q 73.046875 8.984375 75 17.96875 
L 78.90625 35.9375 
Q 82.03125 34.765625 87.5 33.59375 
z
M 79.6875 50.390625 
Q 75 53.90625 71.09375 58.984375 
Q 67.1875 64.0625 63.28125 71.875 
Q 60.15625 65.625 57.609375 61.125 
Q 55.078125 56.640625 50.78125 50.390625 
z
M 50.78125 33.984375 
Q 52.34375 28.515625 54.09375 21.484375 
Q 55.859375 14.453125 57.421875 8.59375 
Q 53.90625 8.203125 50.78125 6.640625 
Q 49.609375 14.0625 48.234375 19.140625 
Q 46.875 24.21875 44.53125 32.03125 
Q 47.65625 33.203125 50.78125 33.984375 
z
M 27.734375 17.578125 
Q 27.34375 14.84375 26.953125 10.9375 
Q 21.09375 9.765625 17.375 8.984375 
Q 13.671875 8.203125 5.859375 5.859375 
Q 4.6875 10.15625 3.125 14.453125 
Q 8.59375 14.84375 14.453125 15.625 
Q 20.3125 16.40625 27.734375 17.578125 
z
M 67.1875 25.78125 
Q 67.96875 20.703125 69.140625 12.890625 
L 62.890625 11.328125 
Q 61.328125 19.921875 60.546875 24.40625 
Q 59.765625 28.90625 58.59375 34.765625 
Q 62.109375 35.546875 65.625 35.9375 
z
" id="SimHei-39564"/>
    </defs>
    <g transform="translate(192.1 45.84)scale(0.2 -0.2)">
     <use xlink:href="#SimHei-24037"/>
     <use x="100" xlink:href="#SimHei-20214"/>
     <use x="200" xlink:href="#SimHei-22352"/>
     <use x="300" xlink:href="#SimHei-26631"/>
     <use x="400" xlink:href="#SimHei-31995"/>
     <use x="500" xlink:href="#SimHei-80"/>
     <use x="550" xlink:href="#SimHei-120"/>
     <use x="600" xlink:href="#SimHei-26041"/>
     <use x="700" xlink:href="#SimHei-21521"/>
     <use x="800" xlink:href="#SimHei-20808"/>
     <use x="900" xlink:href="#SimHei-39564"/>
     <use x="1000" xlink:href="#SimHei-36718"/>
     <use x="1100" xlink:href="#SimHei-24275"/>
     <use x="1200" xlink:href="#SimHei-20542"/>
     <use x="1300" xlink:href="#SimHei-35282"/>
    </g>
   </g>
   <g id="legend_1">
    <g id="patch_5">
     <path d="M 95 96.511875 
L 239 96.511875 
Q 243 96.511875 243 92.511875 
L 243 65.84 
Q 243 61.84 239 61.84 
L 95 61.84 
Q 91 61.84 91 65.84 
L 91 92.511875 
Q 91 96.511875 95 96.511875 
z
" style="fill:#ffffff;opacity:0.8;stroke:#cccccc;stroke-linejoin:miter;"/>
    </g>
    <g id="line2d_14">
     <path d="M 99 79.011875 
L 139 79.011875 
" style="fill:none;stroke:#1f77b4;stroke-linecap:square;stroke-width:1.5;"/>
    </g>
    <g id="line2d_15"/>
    <g id="text_16">
     <!-- 轮廓倾角 -->
     <g transform="translate(155 86.011875)scale(0.2 -0.2)">
      <use xlink:href="#SimHei-36718"/>
      <use x="100" xlink:href="#SimHei-24275"/>
      <use x="200" xlink:href="#SimHei-20542"/>
      <use x="300" xlink:href="#SimHei-35282"/>
     </g>
    </g>
   </g>
  </g>
 </g>
 <defs>
  <clipPath id="p32ccf66102">
   <rect height="332.64" width="502.2" x="81" y="51.84"/>
  </clipPath>
 </defs>
</svg>
